<?xml version="1.0" encoding="utf-8"?>
<!-- Generator: Adobe Illustrator 19.0.0, SVG Export Plug-In . SVG Version: 6.00 Build 0)  -->
<svg version="1.1" id="Layer_1" xmlns="http://www.w3.org/2000/svg" xmlns:xlink="http://www.w3.org/1999/xlink" x="0px" y="0px"
	 viewBox="0 0 787 787" style="enable-background:new 0 0 787 787;" xml:space="preserve">
<style type="text/css">
	.st0{fill:#FFFF01;}
	.st1{fill:#FFFFFE;}
</style>
<g>
	<g>
		<path d="M361.2,98.3c5.1-3.4,10.2-7.6,16.5-8.1c4.7,1,9.6,0.6,14.2,2c2.9,1.9,6.5,3.4,8.1,6.7c6,2.2,7.6,9.1,12.9,12.2
			c3.6,3.5,7.4,7,9.2,11.7c1.2,2.2,1.3,5.4,3.9,6.6c0,2.3,0,4.7,0.1,7c3.1,4,1.4,9.7,0.9,14.3c0.3,0.5,0.8,1.4,1.1,1.8
			c-0.3,0.4-0.9,1.3-1.1,1.7c0,2.2,0,4.5-0.1,6.8c-0.7,0.7-1.3,1.5-1.9,2.3c1.3,4,0.3,8.2,1.6,12.2c-0.4,3.1-1.4,6.1-2,9.1
			c1.1,0.3,2.3,0.6,3.4,0.9c-1,1.3-2.4,2.5-2.6,4.1c0,2.3,0.6,4.6,1,6.9c-2.3,6.8-0.8,14-2.2,21c0.1,1.4,0.8,2.8,0.3,4.2
			c-1.4,4.4-2.1,9.1-2.4,13.7c1,3.3,0.6,6.7-0.1,10c1.1,2.5,1.2,5.2,0.3,7.8c-1.3,3.7-0.3,7.6-1.1,11.3c-0.5,4.4-0.8,8.8-1.4,13.2
			c1.5,0.1,3.1,0.2,4.6,0.3c1.1-0.9,2.1-1.9,3.2-2.8c4.3,0.1,7.2-3.6,11-5c4.3-1.6,8.8-2.9,12.6-5.6c6-4.2,10.3-10.4,16.5-14.3
			c4.4-2.5,7.7-6.5,11.9-9.4c4-2.9,7.9-6,12-8.8c6.9-3.8,13.7-8.2,19.9-13c0.7-0.1,2.1-0.3,2.8-0.4c1.1-0.7,2.2-1.4,3.3-2.1
			c0.1-0.6,0.3-1.9,0.4-2.5c1-0.1,1.9-0.3,2.9-0.4c1.7-1.7,3.5-3.3,5.4-4.7c2-0.3,3.9-1.3,5.5-2.5c2.4-2.2,5.5-3.3,8.2-5.1
			c0.4-0.4,1.1-1.3,1.5-1.7c1.6,0,3.1,0,4.7,0c2-4.3,7.1-4.2,10.5-6.6c3.8-1.3,7.6-2.3,11.5-3.3c8.2-3.1,17.3-4,26-3.2
			c9.1-0.3,18.3-0.2,27.1,2.1c5.8,1.6,11,5.1,14.6,10c1.7,2.2,4.3,3.8,5.2,6.5c1.2,3.2,3,6,5.7,8.2c-0.1,2.1-0.9,5.1,1.9,5.8
			c-0.2,2.8,0,5.5,0.8,8.2c-0.8,2.3-1.8,4.4-2.4,6.8c-0.7,2.3,0.5,4.7,0.6,7c-3.5,5.5-4,12.4-8,17.6c-1.8,2-1.5,5-2.5,7.3
			c-3.1,2.2-5.2,5.4-6.7,8.9c-1,1.5-1.9,3.1-2.9,4.6c-2.7,1.4-3.5,4.5-5.3,6.8c-5.3,5.7-10.9,11.2-15.9,17.2
			c-3.6,0.5-6.2,2.9-8.6,5.3c-5,2.6-10.3,4.9-14.5,8.7c-3.7,0.8-6.7,3.1-9.5,5.4c-0.5,0-1.6,0.1-2.1,0.2
			c-4.5,4.7-10.5,7.4-16.1,10.4c-3.2,1.4-5.4,4.6-9.1,4.6c-2.4,3.1-8.3,2.4-8.7,6.9c-1.5-0.1-2.9-0.3-4.4-0.3
			c-3.3,4.9-9.2,7-13.5,10.9c-3.6,0.6-5.2,4.3-8.1,6.1c-3.9,2.6-6.1,7.4-10.8,8.8c1.9,2.6,4,5.1,5.2,8.2c1.4-0.1,2.7-0.1,4.1-0.2
			c0.3,1.1,0.5,2.2,0.8,3.3c1.3,0,2.5,0,3.8-0.1c0.4,1.1,0.8,2.3,1.3,3.4c6.5,5.2,13.8,9.5,19.8,15.5c3.1,2.4,6,5.1,8.8,7.8
			c0.4,1,0.8,2.1,1.2,3.1c4.6-0.7,5.8,4.3,8,7.1c2,1.6,4.4,2.8,6.4,4.5c6.4,6.2,15,9.5,21.2,16c7.2,1.4,13.8,5.2,20,9
			c6.8,2,12.8,6,18.2,10.5c5.8,3.8,10.5,9,14.8,14.4c3.9,1.2,4.3,6.2,8.3,7.2c-0.3,0.5-0.9,1.5-1.2,2c1.9,2,4.2,3.6,6.5,5.1
			c0,0.8-0.1,2.3-0.2,3.1c1.4,0.4,2.8,0.9,4.3,1.3c1.1,1.8,2.1,3.6,3.1,5.4c3.5,1,4.9,4.7,7.5,7c0.4,1.3,0.8,2.7,1.2,4
			c3,3.4,3.6,7.9,4.7,12.1c0.8,3.4-1.8,6.8,0,10.1c-2,4.4-3.8,8.9-6,13.2c-4,6-10.4,9.4-16.4,12.9c-2.7,1-5.5,1.3-8,2.8
			c-3.6-1.5-7.3,0.4-11-0.3c-3.2-0.6-6.4,1.5-9.6,0.3c-4-1.4-8.1-2.5-12.3-2.7c-4.1-0.1-7-3.8-11-4.1c-2.3-0.1-4-1.6-5.8-2.9
			c-0.7-0.1-2.1-0.3-2.8-0.4c-5.7-4-13.1-3.9-18.5-8.3c-5.6-0.4-10.6-3.1-15.8-5.2c-2.3-0.8-3.9-2.6-5.7-4.1c-1.9-0.2-3.6-1-5.2-2
			c-0.7,0-2-0.1-2.7-0.2c-0.4-0.4-1.1-1.3-1.5-1.7c-6.4-1.3-11.6-5.4-17.7-7.5c-5.2-3.2-9.6-7.7-14.5-11.3c-0.6-0.2-1.7-0.5-2.2-0.6
			c0-0.6-0.1-1.8-0.2-2.4c-2-1.1-4-2.4-5.3-4.2c-0.5-0.1-1.5-0.3-2-0.3c-0.8-1.3-1.6-2.6-2.5-3.7c-1.9-2.6-5.5-3.6-6.6-6.8
			c-1.7-0.5-3.4-1-5.1-1.4c-1.2-2.2-2.5-4.3-3.8-6.4c-5.2-1.8-8.6-6.9-14.2-7.9c-0.2,4.5-2.5,8.5-3.5,12.9c-1.2,0.9-1.9,2.1-2.3,3.6
			c-0.4,0.7-0.9,1.5-1.3,2.2c0,3.9-0.6,7.9-2.9,11.1c-0.9,9.4-1.8,18.9-3.7,28.2c-1.4,7.9-1,16-2.8,23.8c-0.8,3.4-3.6,6.8-1.8,10.3
			c-1,1.7-1.8,3.4-2.4,5.3l1.6,0c-0.3,0.3-0.9,0.9-1.2,1.2c3,3.3-1.7,6.6-0.4,10.2c1.3,5-1,10.1-1.1,15.1c1.1,4.9,0.2,10.1,1.5,15
			c-1.2,8.8-2.1,17.6-4.4,26.2c-3,4-3.2,9.1-4.1,13.8c-3.7,1.8-5.6,6-9.8,7c-0.8,1.3-1.8,3.9-3.8,3.1c-6.1-1.8-12.3,1.1-18.4,0.8
			c-1.8-0.5-3.3-1.5-4.9-2.4c-2.5-0.1-5,0.1-7.5-0.3c-3.8-2-6.8-5.2-10.6-7.3c-5.1-2.8-9.1-7.2-13.1-11.3c-0.3-2.2-1.9-3.7-3.4-5.1
			c0-0.6,0-1.9,0-2.5c-4.4-2.9-7.1-7.9-7-13.2c-2.7-2.7-2.8-6.5-3-10.1c-2.4-3.1-2.3-7.2-2.7-10.9c-0.2-1.6,1.1-2.8,1.8-4.1
			c-0.5-3.9-1.5-7.9-0.4-11.8c-0.9-13.9-1-28.1,0.7-42.1c0.8-3.9-0.3-7.7-0.4-11.5c0.7-0.7,1.4-1.5,2.1-2.3c-0.3-2.4-2.1-4.1-3-6.3
			c-0.1-1.8,1.3-3.2,1.9-4.8c-1.2-3.9-0.9-8.1-1.8-12.1c-0.7-2.4,0.8-5.7-1.4-7.4c-0.8,0-2.4,0-3.2,0c-1.6,4.2-4.6,7.7-8.2,10.4
			c-0.8,3.6-2.3,7.5-5.9,9.1c-2.1,2.7-3.9,5.7-5.2,8.9c-1,2.9-4,4.3-6.4,5.9c-0.3,3.8-3.2,6.5-5.1,9.5c-1,1.4-1.9,3.2-3.8,3.4
			c-0.1,1.3-0.2,2.6-0.3,3.9c-3.5,1.7-5.6,5.1-8.8,7.2c-0.4,1.2-0.7,2.4-1,3.7c-3.4,3.5-6.8,7.2-10.5,10.4c-0.2,0.5-0.6,1.3-0.8,1.8
			c-4.9,1.1-7.8,5.1-10.6,8.8c-1.2-0.7-2.5-1.5-3.8-2.2c-0.1,1.3-0.1,2.6-0.2,3.9c-3.8,2.6-7.9,5-10.5,9c-0.6-0.1-1.7-0.2-2.3-0.3
			c-0.2,2.1-0.8,4.1-1.5,6.1c-1,0.2-2,0.3-3.1,0.5c-0.4,0.4-1.2,1.1-1.5,1.5c-3.3,1.3-5.6,4.2-8.9,5.5c-2.1,0.8-4,2-5.4,3.7
			c-2.6,3-6.7,3.6-9.6,6.2c-2.5,2.2-5.6,3.1-8.6,4.2c-2.4,2.7-6.3,2.3-8.9,4.7c-1.7-0.2-3.4-0.5-5.1-0.8c-3.8,1.5-8.1,0-12,1.5
			c-5.2-3.8-12-4.2-18-6.4c-3.4-1.6-4.4-5.4-5.4-8.6c-2.8-3.7-7.3-7.2-6.2-12.3c-0.6-5-0.9-10.1-2.9-14.8c1-6.7-1.5-13.6,0.5-20.2
			c-0.7-2.7-0.1-5.5,0.5-8.2c-0.3-0.4-0.9-1.2-1.2-1.6c2.9-4.2,3.9-9.2,5-14c0.3-1.7,1.8-2.9,2.8-4.1c1-2.7,1.8-5.5,3-8.2
			c0.1-1.1,0.3-2.1,0.4-3.2c0.8-0.5,1.7-1.1,2.5-1.6c0.6-4.8,3.5-8.9,6-13c2.6-3.2,3.8-7.3,6.4-10.6c3.3-4.3,5.1-9.5,8.1-13.9
			c3.2-2.9,4.6-7.1,7.8-10c4.4-4.4,6.9-10.4,11.7-14.4c0.9-3.4,4.1-5.3,6.1-7.9c3-3.9,6.9-7.2,9.8-11.2c3-2.2,5.4-5,6.9-8.3
			c0.5-0.1,1.6-0.4,2.2-0.6c1.6-1.8,3.2-3.6,4.8-5.3c2.7-0.9,3.4-4.1,6.1-5c3.7-7.4,13.1-9.1,16.8-16.5c1-0.1,2-0.2,3-0.3
			c0.9-1.4,1.6-3.1,3.1-4.1c6.2-3.8,10.9-9.4,16.6-13.9c0.5-6.6-6.2-10-11.1-12.9c-4.2-2.2-9.2-3.1-12.7-6.5
			c-5.2-2.3-10.8-3.3-16.3-4.6c-5.4-3.5-11.7-5.2-17.5-7.9c-3.2-1.3-6.2-3.6-9.9-3.1c-0.8-0.8-1.5-1.7-2.3-2.5
			c-5.2,0.3-9.2-3.3-13.7-5.1c-2.9,0.3-5.4-0.9-7.5-2.8c-2.9-1.2-6-2-9.1-2.9c-2.5-1.2-4.7-3.2-6.6-5.2c-0.8,0-2.3-0.1-3-0.1
			c-1-0.6-2-1.1-3-1.6c-0.5-0.8-0.9-1.6-1.4-2.4c-2.7-0.1-5.8,0.6-7.6-2c-0.6,0-2,0-2.6,0c-1.4-1.4-2.8-2.9-4.2-4.3
			c-0.7,0-2,0.2-2.7,0.2c-0.4-0.4-1.2-1.1-1.7-1.5c-5.3-2.5-11.2-3.7-16.1-7.1c-3.8-2.8-8.7-3.9-11.3-8.1
			c-5.1-4.5-10.2-9.4-13.6-15.5c-1.6-3-3.8-5.5-5.9-8.2c-1.2-2.3-2.1-4.8-3.5-7c0-1.7,0-3.4-0.1-5.1c-1-1.2-2-2.5-2.9-3.8
			c0.4-4-0.1-8.1,0.4-12.1c1-3.6,3.1-6.8,5.1-10c0.8-1.6,2.5-1.8,4-1.9c2.4-0.2,4.5-1.7,7-1.8c4.4-0.3,8.5-2,12.9-1.9
			c4.1,0,8.1-0.3,12.1-1.1c3.9-2.2,8,1.3,12-0.2c4.9-1.3,9.9-0.7,14.9-0.1c3.7-0.1,7.4,0.3,11.1,0.6c1.6,0,2.7,1.3,3.9,2
			c9.5-0.3,19.1,1.4,27.9,4.8c4.1,0.5,9-0.5,12.1,3c2.9-0.1,5.7,0.9,8,2.8c1.9,0.1,3.8,0.2,5.6,0.2c0.8,0.8,1.7,1.7,2.6,2.5
			c2.6,1,5.1,2,7.8,2.7c4,0.9,7,4.1,11.1,4.7c5.3,1.1,11,2.1,15,6c1.9,0.1,3.8,0.2,5.7,0.3c3.4,3.9,9.1,1.8,13.2,4.6
			c2.7-2.8,4.2,1.4,6,3c1.3,0.3,2.7,0.5,4,0.7c0.4,0.3,1.3,1,1.8,1.3c2.6-0.2,4.4,1.7,6.4,3.1c4.7,1.1,10.3-2.6,10.6-7.6
			c-1-1.1-2.1-2.2-3.1-3.2c0.3-2.4,0-4.7-0.9-6.9c5-9,6.3-19.6,5.7-29.8c0.4-6.1,1.9-12.3,0.8-18.5c-1.7-7.5,2-14.9,1.3-22.5
			c-0.8-8.4,2.3-16.7,1.4-25.1c0-4.1,1.6-8.3-0.1-12.2c3.2-4.1,1.6-9.8,4-14.2c2.5-5.1,2.5-11.2,6.3-15.7c1.5-6.5,6.7-11,9.1-17.1
			c0.1-0.5,0.4-1.5,0.6-2c1.7-0.7,3.3-1.4,5-2.1c-0.1-0.8-0.2-2.4-0.3-3.2C359.6,100.7,360.4,99.5,361.2,98.3z M380.4,128.4
			c-0.5,1.5-1.1,2.9-1.6,4.4c-0.6-0.5-1.8-1.5-2.4-2c-1.4,1.4-2.8,2.9-3.6,4.8c-1.6,3.6-4.3,6.5-6,10.1c-0.3,0.4-0.9,1.3-1.2,1.8
			c-0.6,1-1,2-1.1,3.2c-0.6,0.8-1.1,1.6-1.5,2.5c-0.8,0.4-1.6,0.8-2.5,1.2c-0.5,6-3.4,11.5-4.6,17.4c-0.3,3.2,0.1,6.4,0,9.7
			c0.1,1.2-0.7,3.2,1.1,3.5c-1.5,5.2-4.4,10.6-1.9,16.1l0-0.8c1.6,4.4-0.9,8.9-0.6,13.4c0.3,8.7-2.9,17.3-1.5,26
			c-1.2,5.7,0.2,11.7-1.9,17.1c-1.4,4,0.1,8,0.7,12c0.6,3.8,3.6,6.4,5.4,9.7c-1.2,3.3-1,6.7-0.8,10.2c-2.6,4.9-5,9.9-7.4,14.9
			c-3.2,1.1-4.8,4.3-7.2,6.4c-2.4,1.4-4.9,2.6-7.3,4c-2.6,0.7-5.5-0.9-7.9,0.7l1.3,0.6c-4.1,0.8-7-2.5-10.3-4.3
			c-2.3-0.3-4.5-1.1-5.9-3.1c-2.5-0.2-5-0.4-7.3-1.4c-6.1-1.9-12.4-3.2-17.9-6.6c-3.6-2.3-8.2-1.3-11.8-3.6c-1.6,0-3.3,0.2-4.7-0.7
			c-3.2-1.7-7.1-1.1-10-3.3c-1.7-1-3-2.7-4.8-3.6c-2.6-0.8-5.2-1.7-8-1.9c-3.4-3.1-8.5-3-12.4-5.4c-3,1.7-5.9-0.1-8.4-1.8
			c-1.8-1.3-3.9,0-5.7,0.4c-1.6-0.3-2.5-1.9-4-2.2c-2.1-0.5-4.3-0.8-6.3-1.9c-3.9,0.6-10,0.5-11.7-3.9c-2.5,1.4-5.2,2.4-8,3.3
			c-3.9-0.9-7.9-1.6-11.9-2.3c-3.7,2.8-8.1-1-12.2,0.1c-8.8,1.7-18,2.4-26.5,5.6c1.8,2.8,5.4,3.4,7.6,5.7c1,0.7,1.9,2.2,3.3,1.6
			l0.1,0.8c0.4,0,1.2,0,1.6,0c0.7,3.1,4.5,3.7,7,4.8c2.9,0.6,5.4,2.1,7.6,4.1c4.9,0.5,9.2,3,13.7,4.8c3.7,0.1,6.1,2.9,8.6,5.2
			c0.5,0.2,1.4,0.5,1.9,0.7c4.8,2.9,10.4,5.9,16.1,5c3.9,3.4,9.2,4.2,13.5,6.9c1.5,0.3,3,0.6,4.5,0.8c2.1,2.9,6.1,2,8.5,4.3
			c2.5,0.6,5.2,0.7,7.6,1.9c2.9,2,6,3.8,9.3,5.2l-0.1,0.1c1.8,0.3,3.8,0,5.2,1.4c2.8,2.7,6.9,3.1,10.6,3.8c4.8-0.2,8.2,3.5,12.6,4.8
			c0,0.9,0.1,2.6,0.1,3.4c2-0.1,3.9-0.6,5.8-0.9c1.9,1.8,3.4,4.1,5.9,5.1c4,1.9,7.1,5.3,11.3,7c2.2,2.3,5,4.1,8,5.2
			c1.5,2,3,4.4,5.4,5.6c1.1,2.1,3.1,3.4,5.2,4.4c1.1,1.8,0.8,4.2,1,6.2c2.1,1.5,4.5,2.6,6.7,3.8c-0.8,1.4-1.6,2.8-2.4,4.1
			c0.5,2.4,1,4.7,1.7,7.1c0.8,4.6-1.3,9.1-2,13.6c-1.2,5-4.2,9-7.8,12.5c-1.9,1.3-3.6,2.8-4.6,4.9c-1.5,1-3.1,1.7-4.9,1.8
			c-0.5,1.4-0.4,3.2-2,3.8c-2.2,1.1-3.7,3.1-5,5.1c-0.8,0.5-1.7,1-2.5,1.6c-0.6,0-1.8-0.1-2.4-0.1c-2.8,3.5-6.3,6.3-10,8.8
			c-1,2.1-1.9,4.6-4.5,5.1c-0.5,1-1,2-1.5,3.1c-1.4,0.5-2.9,1-4.3,1.5c-0.1,0.6-0.4,1.6-0.6,2.2c-3.1,0.5-5.5,2.7-7.8,4.6
			c-0.9,1.9-1.7,3.8-3.4,5c-2.3,1.1-4.1,3-5.6,4.9c-1.2,0.7-2.3,1.3-3.4,2c-0.7,1.1-1.5,2.2-2.4,3.3c-0.3,0.4-0.8,1.1-1.1,1.5
			c-1.9,2.1-3.6,4.4-5.8,6.2c-0.2,1.2-0.4,2.5-0.6,3.8c-1.4,0.5-2.9,1.1-4.3,1.6c-0.3,0.4-0.9,1.2-1.2,1.7c-0.3,1.5-0.7,2.9-1,4.4
			c-3.9,3.3-6.2,8.2-9.6,12.1c-2.1,1.6-4.5,3.3-4.6,6.1c-0.8,3.4-4.2,5.1-5.1,8.5c-1.9,5.1-6.5,8.4-8.3,13.6
			c-1.7,0.8-1.9,2.7-2.3,4.3c-3.2,2.3-4.6,6.8-5.3,10.7c-4.6,0.6-3.2,5.7-4.9,8.8c-1.6,3.5-2,7.4-3.6,11c-0.1,0.5-0.5,1.5-0.6,2
			c-1.1,1.8-1.2,3.9-1,6c1.9,1.4,1.7,3.8,1.5,5.9l0.1-0.3c0.3,0.7,0.9,2,1.2,2.7c-2.1,2.5-1.3,5.8,0.8,8.1c0.8,0,2.4-0.1,3.2-0.2
			c1.2-0.9,2.5-1.8,3.7-2.7c1.7,0.1,3.5,0.6,4.9-0.7c0.5-0.1,1.6-0.4,2.1-0.5c0.3-0.3,0.8-0.9,1.1-1.2c5.5-1.3,9.5-5.5,14-8.7l1-0.1
			c1.7-1.5,3-3.6,5.1-4.5c1.8-0.9,5.1-1.1,3.5-3.9c2.1-0.4,3.6-1.9,5-3.5c4.5-0.4,5.8-6.2,10.4-6.5c4.7-5.4,10.6-9.4,16.3-13.8
			c4-3,6.4-7.5,10-11c5.2-4.5,6.3-11.8,11.1-16.6c1.6-2.5,3.9-4.5,4.5-7.5c4.4-0.2,3.3-6.4,7.6-6.8c2.8-4.3,5.7-8.7,10.3-11.2
			c0-0.8,0-2.5,0-3.3l0.8,0.3c0-0.5-0.1-1.6-0.1-2.2c1-0.8,2-1.6,2.9-2.5c2.4-1.2,2.2-4.3,2.6-6.5c5.3-6.1,6.8-14.8,13.4-19.9
			c2.6-5.6,4.5-11.7,7.9-16.9c0.5-0.2,1.5-0.7,1.9-0.9c1.9-2.4,5.8-5.5,8.3-2.2c3.3,0.9,6.6,1.5,9.8,2.8c0.5,2,2.6,1.9,4.3,2.1
			c0.9,0.8,1.9,1.7,2.8,2.6c0.6,0,1.8,0.1,2.4,0.1c0.1,1.5,0.3,3,0.4,4.5c3.5,3.8,2.7,9.3,2.9,14c1.9,2,2.6,4.7,3.2,7.4
			c1.5,8.2,2,16.6,4,24.7c-0.7,2.7-0.8,5.6,0.3,8.2c-0.5,1.2-1.1,2.4-1.6,3.6c0.6,1.2,1.5,2.4,1.9,3.8c0.5,6.6-0.1,13.2,1.3,19.7
			c0.4,5.4-2.1,10.6-1,16c0.7,3.2-1,6.5,0.4,9.6c1,2.5,0.8,5.4-1.3,7.3c2.2,9.5,0,19.4,1.5,29c-1.1,5.6-1.2,11.2-0.5,16.8
			c0.7,1.6,0.6,3.4,0.7,5.1c0.7,2.1,1.5,4.1,2.3,6.1c1.5,0.9,2.1,2.3,2.1,4c3.2,3.5,7.4,6.3,12,7.3c3.1-0.9,6-2.9,9.4-1.9
			c1.3-1.1,2.6-2.1,3.9-3.2c0.4-3.9,2.3-7.3,4.4-10.4c-1.1-1-2.2-2-3.4-2.9c0.6-1,1.3-2.1,2-3.1c1.3-6.5,2.1-13.2,2.2-19.8
			c-2-5.5-0.8-11.4,0.5-16.9c-2-2.9-0.3-6.1-0.5-9.2c0-3,1.6-5.8,1.2-8.9c-0.4-2.5,1.9-4.5,1.6-7.1c0-5.8,0.9-11.6,2.5-17.1
			c1.7-5.5,0-11.2,0.7-16.8c2-2.6,3.7-6.2,1.5-9.2c0.7-0.9,1.3-1.7,2-2.6c-0.7-4.1,1-8.1,1.4-12.1c0.3-3.1,0.3-6.2,1.3-9.1
			c2.4-6.6,3.8-13.4,6.6-19.8c2-4.1,1.1-8.8,2.2-13c0.9-3.3,0.5-7.1,2.9-9.9c0-4.6,3.3-8.4,8-8.7c0-3.3,3.2-2,4.7-0.7
			c5.1,0,8,5.7,13.3,4.6c0.7,1.8,1.2,3.7,2,5.5c2.5,2.5,5.8,4.2,8,7.1c2.2,2.9,5.1,5.2,8.3,6.7c5.1,2.8,6.3,10.4,12.8,11
			c0.1,0.6,0.2,1.7,0.3,2.3c3.8,3.1,6.8,7.5,11.9,8.7c0.4,1.1,0.8,2.3,1.2,3.4c3.6,1,6.1,3.9,8.4,6.7c3.1,4.3,8.5,5.5,12.4,8.8
			c2.8,3,7.4,2.9,10.4,5.7c1.1,0,2.2,0.1,3.3,0.1c1,1,2,1.9,3.1,2.9c2.2,0.3,4.5,0.7,6.7,1.2c1.9,1.8,4.4,2.8,7.1,3.1
			c0.5,0.4,1.5,1.1,2,1.5c3.7,0.4,7.4,1.3,11.1,1.7c4.9,3.8,10.8,6.4,16.8,7.9c2.3,1.2,4.7,2.1,7.2,2.9c1.2,0.7,2.3,1.8,3.9,1.7
			c4.1,0.3,7.9,2.3,12,2.8c4.2,0.8,8.5-0.2,12.6-0.9c-0.1-0.3-0.3-0.9-0.4-1.2c0.3,0.3,0.9,1,1.2,1.3c2.2-0.5,4.5-0.9,6.7-1.3
			c0.5,0,1.5-0.1,2-0.2c2.4-2.4,5.4-4.5,6.8-7.6c-1.3-3.5-5.4-4.7-7.5-7.6c-2.1-2.9-5.9-4.2-7.2-7.7c-5.5-2.8-8.4-8.5-11.8-13.3
			c-1-0.5-2.5-0.6-2.7-2c-0.8-3.3-4.7-3.6-6.8-5.8c-0.6,0-1.7-0.1-2.2-0.1c-3.1-2.3-6.9-3.5-9.6-6.4c-4.9-0.9-9-5.2-14.1-4.4
			c-2.7-2.1-6.1-3-8.7-5.3c-1.2-1-2.5-1.8-3.8-2.5c-0.3-0.4-1-1.2-1.3-1.6l-0.4-0.3c-1.4-0.4-2.8-0.9-4.2-1.4l-0.4,0.1
			c-0.5-0.4-1.6-1.2-2.1-1.6c-0.7-0.2-1.9-0.6-2.6-0.8c-0.7-1.1-1.4-2.2-2.1-3.3c-0.8-1.2-1.9-2.2-3.3-2.9l-0.4,0.4
			c0-1.2-1.6-1.8-2.3-2.6c-1.5-2.4-4.3-2.5-6.8-2.6c-0.2-1.4-0.3-2.8-0.5-4.2c-2.6-1.4-4.7-3.5-6.5-5.9c-1.7-1.1-3.2-2.5-4.8-3.7
			c-2.4-0.6-4.8-1.5-5.2-4.3c-3.1-3.4-5.9-7.2-10.7-8.1c-2.1-3-4.7-5.9-8.4-6.9c-2.3-0.5-3.4-2.7-4.5-4.5c-7.4-3.8-13-10.2-19.8-15
			c-2.9-3.6-8.7-4.2-10.1-9c-2.5-2.6-5.5-4.6-8.4-6.8c-3.2-4.1-5.9-8.7-6.4-14c0.6-2.2,2-4,3.1-6c0.1-0.6,0.2-1.7,0.3-2.2
			c0.8-1.1,1.5-2.2,2.3-3.2c0.6-0.1,1.8-0.2,2.4-0.2c0.4-0.5,1.1-1.6,1.5-2.2c3.5-0.4,7.3,1.2,10.4-0.9c2.8-1.9,4.8-4.7,6.8-7.3
			c3.4-4.2,8.7-6.1,13.1-9c2.8-3.6,6.2-7.6,11.1-7.9c1.7-1.8,2.5-4.2,3.7-6.4c3.1-1.3,7.1-0.5,9.6-3.2c2.8-2.9,6.6-4.5,9.9-6.8
			c0.8,0,1.6-0.2,2.4-0.5c0.3-0.1,0.9-0.4,1.2-0.6c2.7-2.5,6.4-4,9.9-4.9c3.5-3.6,7.5-6.8,12.3-8.5c0.3-0.8,0.9-2.3,1.2-3
			c3.6,0.1,5.9-3.2,9-4.7c3-1.8,6.6-2.3,9.4-4.5c2.9-2.1,6.6-2.6,9.7-4.4c0.8-2.9,4.5-2.7,5.9-5.1c1-1.8,3-2.5,4.8-3.2
			c0.7-1.2,1.5-2.4,2.4-3.6c1.3-2.6,3.2-5,5.6-6.7c3.4-3.6,4.9-8.9,9.4-11.4c0.1-1.9-0.2-3.9,1-5.5c1.9-2.9,3.3-6.1,3.4-9.6
			c0.3,0,0.8-0.1,1.1-0.1c1.2-1.7,3.1-3.2,2.9-5.5c0.4-3.3-1.7-6.1-3.8-8.4c-5.3-1.6-10.9-0.4-16.2-1.6c-2.7-0.8-5.1,0.9-7.8,0.6
			c-2.8,0.1-6.1-1-8,1.7c-2.9,1-5.9,1.4-8.9,1.4c-3.2,1.6-6.7,2.4-9.9,3.9c-3.9,1.7-8.8,2.1-11.3,6c-0.7,0-2.1,0.1-2.8,0.2
			c-3.6,2.4-7,5.2-10.6,7.6c-2.9,0.8-5.4,2.6-8.3,3.3c-1.2,1.6-2.2,3.3-3.1,5.1c-1.8,0.1-3.5,0.1-5.3,0c-2.4,1.5-4.5,3.6-7.2,4.6
			c-1.3,2.3-4.1,2.6-5.8,4.3c-3.3,2.8-7.5,4.5-10.4,7.9c-2.8,2.6-6.5,4-9.6,6.2c-3.3,2.7-5.7,6.4-9.7,8.1c-1.7,2.7-4.5,4.3-7,6.2
			c-1.5,1.2-2.6,2.7-3.5,4.4c-3.2,0.7-4.8,5.1-8.2,4.2c-2.4,2-4.8,4.1-7.4,5.9c-1.8,1-3.3-0.5-4.6-1.5c0.7,1,1.3,2.1,1.9,3.1
			c-2.4,1.2-4.8,2.5-7.4,3.2c-2,0.1-4-0.5-6-0.8c-1.3,3.8-4.6,6.1-8.1,7.7c-0.6-0.1-1.7-0.2-2.3-0.2c-1.1,0.8-2.3,1.5-3.6,2
			c-3.5,2.8-7.5,5-12,5.2c-2.7-0.5-5.4-0.8-7.9-1.8c-1.4-1.2-2.3-2.8-3.5-4.1l-0.9,1.4c-1.7-1-3.1-2.4-4.4-3.9l0,0
			c-1.6-1.7-2.2-4-3.5-5.9l0-0.2c-1.1-1.1-2.3-2.1-3.3-3.3c-0.4-3.1,0.1-6.4-0.7-9.5c-0.9-1.5-2-2.8-3.1-4.2
			c0.9-2.2,1.2-5.1,3.9-5.8c0.5-2.4,0.8-4.8,1.6-7.2c0.1-5.7,0.1-11.5,2.1-17c-0.6-6.7,1.4-13.2,1.2-19.8c0.5-9.7,0-19.6,2-29.1
			c-1.6-8.9,0.7-17.9,1.3-26.8c-1-6.1,0.5-12.1,1.3-18c0-4.1-1.4-8.1-0.6-12.2c0.3-2,1.2-3.9,0.4-5.9c-1.4-3.8-1.6-7.9-2.8-11.8
			c-0.8-0.5-1.6-1-2.4-1.5C394,124.6,385,124.2,380.4,128.4z"/>
	</g>
</g>
<g>
	<g>
		<path class="st0" d="M380.4,128.4c4.6-4.2,13.6-3.8,15.8,2.8c0.8,0.5,1.6,1,2.4,1.5c1.3,3.9,1.4,8,2.8,11.8c0.8,2-0.1,3.9-0.4,5.9
			c-0.7,4.1,0.6,8.1,0.6,12.2c-0.8,6-2.3,12-1.3,18c-0.6,8.9-2.9,17.9-1.3,26.8c-1.9,9.6-1.5,19.4-2,29.1c0.2,6.7-1.8,13.2-1.2,19.8
			c-2,5.4-1.9,11.2-2.1,17c-0.8,2.3-1.1,4.8-1.6,7.2c-2.7,0.7-3,3.7-3.9,5.8c1.1,1.4,2.2,2.7,3.1,4.2c0.8,3.1,0.3,6.4,0.7,9.5
			c1,1.2,2.2,2.2,3.3,3.3l0,0.2c-0.1,1.3-0.1,2.7-0.2,4c0.8,1.5,1.6,3,2.4,4.5c0.4,0.3,1.3,0.8,1.8,1c-0.2-1.2-0.4-2.4-0.6-3.6
			c1.3,1.5,2.7,2.9,4.4,3.9c-0.2,2,0.1,3.9,1.5,5.5c0.1,0.4,0.3,1.2,0.4,1.6c0.5,0.4,1.6,1.1,2.2,1.5c0.9,0,2.8-0.1,3.7-0.1
			c0.1-0.6,0.3-1.8,0.4-2.3c1.4-0.5,2.7-1.1,4.1-1.6c4.5-0.2,8.5-2.5,12-5.2c1.3-0.5,2.5-1.2,3.6-2c0.6,0.1,1.7,0.2,2.3,0.2
			c3.4-1.6,6.8-4,8.1-7.7c2,0.3,3.9,0.9,6,0.8c2.6-0.7,5-2,7.4-3.2c-0.6-1.1-1.3-2.1-1.9-3.1c1.3,1.1,2.7,2.5,4.6,1.5
			c2.6-1.8,4.9-3.9,7.4-5.9c3.4,0.9,5-3.5,8.2-4.2c0.9-1.6,2-3.2,3.5-4.4c-1,1.1-1.9,2.2-2.7,3.3c0.9-0.1,2.6-0.2,3.4-0.3
			c1.1-1.4,2.6-2.4,4.1-3.3c1.1-1,2.2-1.9,3.4-2.9c0.5-0.8,0.9-1.6,1.4-2.3c0.6-0.1,1.8-0.2,2.4-0.3c0.6-0.9,1.3-1.7,1.9-2.5
			c1.1-0.1,2.3-0.3,3.5-0.4c0.5-0.8,0.9-1.7,1.4-2.5c1.6-0.4,3.2-0.7,4.8-1c-0.1-0.5-0.2-1.5-0.3-2c1.5-0.2,3-0.4,4.5-0.6
			c2.7-3,6.4-5,9.4-7.6c1.8-0.5,3.5-1,5.3-1.5c-0.6-0.4-1.7-1.1-2.2-1.5c6.9,0.4,9.8-7,13.9-11.2c0.5,0.1,1.6,0.2,2.2,0.2
			c0-0.6,0.1-1.7,0.1-2.2c1.3-0.1,2.5-0.1,3.8-0.2c0-0.5,0.2-1.5,0.2-2c1.8-0.7,3.1-1.9,3.9-3.7c1.7-0.2,3.4-0.4,5.1-0.6
			c-0.8-0.2-2.3-0.5-3.1-0.6c3.6-2.4,7-5.2,10.6-7.6c0.7-0.1,2.1-0.2,2.8-0.2c2.5-3.9,7.4-4.3,11.3-6c3.2-1.4,6.7-2.2,9.9-3.9
			c3,0,6.1-0.4,8.9-1.4c1.9-2.6,5.2-1.6,8-1.7c2.6,0.2,5.1-1.4,7.8-0.6c5.3,1.2,10.9,0,16.2,1.6c2.1,2.3,4.2,5.1,3.8,8.4
			c0.3,2.4-1.6,3.8-2.9,5.5c-0.3,0-0.8,0.1-1.1,0.1c-0.1,3.5-1.5,6.7-3.4,9.6c-1.5-0.3-3-0.5-4.4-0.7c-1.2,4-2.8,7.9-5.8,10.8
			c-1,1.5-2.1,2.9-3.1,4.4c-4.2,0.3-8.4,0.2-12.7,0c0,0.6-0.2,1.9-0.2,2.6c-1.5,0.2-3,0.5-4.4,0.8c0.5,0.4,1.4,1.3,1.9,1.8
			c-2.7-0.1-5.5-0.1-8.2-0.2c-1.3,2.2-2.5,4.5-3.6,6.8c-2.1-0.4-4.3-0.7-6.5-1.1c0,2,0,4.1,0.1,6.1c0.4,0.5,1.1,1.4,1.4,1.8
			c0,2.3,0,4.6,0,6.9c-0.6,0.1-1.8,0.3-2.4,0.5c-0.1,1.3-0.2,2.6-0.2,4c-3,1.4-5.4,4.8-9,4.7c-1.2,0.1-2.5,0.1-3.7,0.1
			c0.1,0.5,0.2,1.6,0.2,2.1c-1.8,0.3-3.7,0.7-5.5,1.1c-1.1,1.3-2.5,2.2-4,3c0,0.6,0,1.2,0,1.8c-1.5,0.2-3,0.4-4.5,0.6
			c-0.2,0.5-0.6,1.5-0.8,1.9c-1.5,0.3-2.9,0.6-4.4,1c-0.2,0.4-0.6,1.2-0.8,1.6c-2.1,0.9-4.2,1.8-5.2,4c1,0,3.1-0.1,4.1-0.2
			c-0.8,0.3-1.6,0.4-2.4,0.5c-3.3,2.3-7.1,3.9-9.9,6.8c-2.5,2.7-6.4,2-9.6,3.2c-1.2,2.2-2,4.6-3.7,6.4c-4.9,0.3-8.3,4.3-11.1,7.9
			c-4.4,2.9-9.7,4.8-13.1,9c-2.1,2.6-4,5.4-6.8,7.3c-3.1,2.2-7,0.5-10.4,0.9c-0.4,0.5-1.1,1.6-1.5,2.2c-0.6,0.1-1.8,0.2-2.4,0.2
			c-0.8,1.1-1.5,2.2-2.3,3.2c-0.1,0.6-0.2,1.7-0.3,2.2c-1.1,1.9-2.5,3.8-3.1,6c0.5,5.3,3.2,9.9,6.4,14c2.9,2.1,5.9,4.1,8.4,6.8
			c1.5,4.8,7.2,5.4,10.1,9c6.8,4.7,12.4,11.1,19.8,15c1.1,1.8,2.2,4,4.5,4.5c3.7,1,6.3,3.9,8.4,6.9c4.8,0.9,7.6,4.8,10.7,8.1
			c0.4,2.8,2.8,3.7,5.2,4.3c-1.7-0.1-3.4-0.2-5.1-0.2c1.8,1.7,3.9,2.9,6.2,3.6c-0.7,0.6-1.7,1-2.4,1.7c1.3,0.5,2.6,1.1,3.9,1.6
			c0.4,2,0.8,4.1,1.6,6c2.1,0.8,4.2,1.3,6.4,2c0.7,4,5.7,3.5,8.5,5.1c0-1.2-0.1-2.3-0.4-3.4c0.7,0.8,2.3,1.4,2.3,2.6
			c-0.8,0.9-1.7,1.7-2.6,2.6c2.3,0.5,4.6,1,6.9,1.5l-0.8-1.6c0.7,1.1,1.4,2.2,2.1,3.3c0.7,0.2,1.9,0.6,2.6,0.8
			c-2.1,1.2,0.9,2.8,2.1,1.6l0.4-0.1c1.4,0.5,2.8,1,4.2,1.4c-1.5,0.1-3.1,0.4-4.5,0.9c1.2,0.6,2.5,1.2,3.9,1.2
			c0.3-0.4,0.8-1.3,1.1-1.8c0.3,0.4,1,1.2,1.3,1.6c1.3,0.7,2.7,1.5,3.8,2.5c2.5,2.3,6,3.2,8.7,5.3c-0.5,0.3-1.5,0.8-2,1.1
			c1.8,1.5,3.8,3.4,6.4,3.1h0.8c1.7-0.2,1.5,1.3,1.2,2.4c1.4,0.4,2.7,0.8,4.1,1.2c-0.1,0.9-0.3,1.7-0.4,2.6c0.6,0.1,1.7,0.4,2.3,0.5
			c0.1,1.1,0.1,2.2,0.2,3.2c2.4,0.9,4.7,1.8,7.1,2.7c-0.6,0.3-1.7,0.8-2.2,1.1c2,0.7,4,1.4,6,2.1c0,0.6,0.1,1.7,0.1,2.3
			c0.5,0.4,1.5,1.1,2.1,1.5c-0.1,0.6-0.1,1.8-0.2,2.3c2.1,0.5,4.2,1,6.3,1.6c0,0.6,0,1.9,0,2.5c0.9,0.6,1.8,1.3,2.7,1.9
			c0,0.5,0,1.6,0,2.1c2.3,0.5,4.6,0.9,6.8,1.8c0.3,1,0.6,2,0.9,3c1.1,0.4,2.2,0.8,3.3,1.2c0,0.6,0.1,1.8,0.2,2.5
			c0.3,0.4,1,1.1,1.4,1.5c-0.2,3.5-0.5,7.2-1.9,10.5l0.2,0.5c0.1,0.3,0.3,0.9,0.4,1.2c-4.2,0.7-8.4,1.7-12.6,0.9
			c-4.1-0.5-7.9-2.5-12-2.8c-1.5,0-2.6-1-3.9-1.7c-2.5-0.8-4.9-1.7-7.2-2.9c-6-1.5-11.9-4.1-16.8-7.9c-3.7-0.4-7.4-1.3-11.1-1.7
			c-0.5-0.4-1.5-1.1-2-1.5c-2.6-0.3-5.1-1.2-7.1-3.1c-2.2-0.6-4.4-1-6.7-1.2c-1-1-2-1.9-3.1-2.9c-1.1,0-2.2-0.1-3.3-0.1
			c-3-2.8-7.6-2.7-10.4-5.7c-3.9-3.3-9.3-4.4-12.4-8.8c-2.2-2.9-4.7-5.7-8.4-6.7c-0.4-1.1-0.8-2.3-1.2-3.4c-5-1.2-8-5.6-11.9-8.7
			c-0.1-0.6-0.2-1.7-0.3-2.3c-6.5-0.6-7.7-8.2-12.8-11c-3.2-1.6-6.1-3.9-8.3-6.7c-2.2-2.9-5.4-4.6-8-7.1c-0.8-1.8-1.3-3.7-2-5.5
			c-5.3,1.2-8.1-4.6-13.3-4.6c-1.5-1.3-4.7-2.6-4.7,0.7c-4.7,0.3-8,4.1-8,8.7c-2.4,2.7-2,6.6-2.9,9.9c-1.1,4.3-0.2,8.9-2.2,13
			c-2.9,6.4-4.3,13.3-6.6,19.8c-1,3-1,6.1-1.3,9.1c-0.3,4.1-2,8-1.4,12.1c-0.7,0.9-1.4,1.7-2,2.6c2.2,3,0.5,6.6-1.5,9.2
			c-0.6,5.6,1,11.3-0.7,16.8c-1.6,5.5-2.5,11.3-2.5,17.1c0.3,2.5-2,4.5-1.6,7.1c0.3,3-1.2,5.9-1.2,8.9c0.2,3.1-1.5,6.4,0.5,9.2
			c-1.3,5.5-2.5,11.4-0.5,16.9c-0.1,6.6-0.9,13.3-2.2,19.8c-0.7,1-1.3,2.1-2,3.1c1.1,0.9,2.3,1.9,3.4,2.9c-2.1,3.2-4,6.6-4.4,10.4
			c-1.3,1.1-2.5,2.1-3.9,3.2c-3.4-1-6.3,1.1-9.4,1.9c-4.7-1-8.8-3.8-12-7.3c0-1.7-0.6-3.2-2.1-4c-0.7-2.1-1.6-4.1-2.3-6.1
			c-0.1-1.7,0-3.5-0.7-5.1c-0.6-5.6-0.5-11.2,0.5-16.8c-1.5-9.6,0.7-19.4-1.5-29c2.1-1.8,2.3-4.8,1.3-7.3c-1.3-3.1,0.3-6.4-0.4-9.6
			c-1-5.4,1.4-10.6,1-16c-1.4-6.5-0.8-13.1-1.3-19.7c-0.4-1.4-1.2-2.5-1.9-3.8c0.5-1.2,1.1-2.4,1.6-3.6c-1.1-2.6-1-5.5-0.3-8.2
			c-2-8.1-2.5-16.5-4-24.7c-0.6-2.6-1.3-5.4-3.2-7.4c-0.2-4.8,0.7-10.2-2.9-14c-0.2-1.5-0.3-3-0.4-4.5c-0.6,0-1.8-0.1-2.4-0.1
			c-0.9-0.9-1.8-1.7-2.8-2.6c-1.7-0.1-3.7,0-4.3-2.1c-3.2-1.3-6.5-1.9-9.8-2.8c-2.6-3.3-6.4-0.2-8.3,2.2c-0.5,0.2-1.5,0.7-1.9,0.9
			c-3.4,5.2-5.2,11.2-7.9,16.9c-6.6,5-8.1,13.8-13.4,19.9c-0.6-0.2-1.2-0.3-1.8-0.5c-1,2.6-2,5.2-3,7.9l2.1-0.9
			c-0.9,0.8-1.9,1.7-2.9,2.5c0,0.5,0.1,1.6,0.1,2.2l-0.8-0.3c-4.1-0.8-6,3.3-8.7,5.6c-2.3,1.9-3.9,4.5-5,7.2
			c-0.9,0.1-1.8,0.2-2.8,0.3c-1.4,2.1-3.2,3.9-5.2,5.3c-1.1,1-2.2,2-3.2,3.1c-0.9,0.3-1.7,0.5-2.5,0.8c-1.8,3.1-3.8,5.9-6.3,8.4
			c-1.5,0.5-3.1,0.9-4.6,1.4c-3,3.3-5.3,7.5-9.2,9.8c-0.2,0.3-0.5,1.1-0.7,1.4c-4,1.2-6.3,4.8-9.4,7.4c-3.5,6.2-6.6,12.8-11.8,17.9
			c-1.7,1.6-3.3,3.2-5,4.8c-0.9,1.1-1.7,2.2-2.6,3.2c0,0.4,0,1.3-0.1,1.7c-1.3,0.7-2.6,1.4-3.9,2.1c-1.3,0.5-2.5,1-3.8,1.6
			c-0.7,2.3-1.4,4.6-2.1,6.8c0.6-0.1,1.7-0.2,2.2-0.2c-4.5,3.2-8.4,7.3-14,8.7c0.6-0.7,1.8-2.1,2.4-2.8c-2.2,0-5.3-1.3-6.4,1.5
			c-1.8,0-3.5,0-5.3,0c0-0.6-0.1-1.8-0.1-2.3c-2.2-1.1-4.4-2.3-6.7-3.3c-0.2,0.4-0.6,1.1-0.8,1.5l-0.1,0.3c0.2-2.1,0.5-4.5-1.5-5.9
			c-0.2-2-0.1-4.1,1-6c0.1-0.5,0.5-1.5,0.6-2c1.6-3.5,1.9-7.5,3.6-11c1.7-3.1,0.4-8.2,4.9-8.8c0.7-3.9,2-8.4,5.3-10.7
			c0.7,0,2.1-0.1,2.8-0.2c0-0.5,0-1.6,0-2.2c1.5-0.8,2.3-2.2,2.6-3.8c-0.8,0.5-2.3,1.4-3.1,1.9c1.8-5.1,6.4-8.5,8.3-13.6
			c0.9-3.3,4.3-5.1,5.1-8.5c0.3,0.4,0.8,1.1,1.1,1.4c0.9-1.1,1.7-2.2,2.5-3.3c3.7-5.3,7.9-10.1,12.1-15c2-4.9,6.4-8.3,9.3-12.6
			c0-0.4,0.1-1.2,0.1-1.6c3.1-2.1,4.1-6.2,7.4-8c0.4-0.4,1.1-1.3,1.5-1.7c1.1-0.4,2.2-0.8,3.3-1.1c1.3-1.6,2.1-3.5,2.6-5.4
			c1.8-1.2,2.5-3.2,3.4-5c2.3-1.9,4.7-4.1,7.8-4.6c0.1-0.6,0.4-1.6,0.6-2.2c1.4-0.5,2.9-1,4.3-1.5c0.5-1,1-2.1,1.5-3.1
			c2.6-0.5,3.5-3,4.5-5.1c3.6-2.5,7.2-5.4,10-8.8c0.6,0,1.8,0.1,2.4,0.1c0.8-0.5,1.6-1,2.5-1.6c1.3-2,2.8-4,5-5.1
			c1.6-0.6,1.5-2.5,2-3.8c1.8-0.1,3.4-0.8,4.9-1.8c1-2.1,2.7-3.6,4.6-4.9c3.6-3.5,6.6-7.5,7.8-12.5c0.7-4.5,2.7-9,2-13.6
			c1.9-1.5,3.5-3.3,4.8-5.4c1.3-0.4,2.5-0.7,3.8-1.1c0.5-1.5,1-3.1,1.5-4.6c-0.5-1.5-0.9-2.9-1.3-4.4c-2.5-1.1-5.1-2-7.7-2.5
			c0.5-0.3,1.4-0.8,1.9-1.1c-2.6-0.8-5.2-1.7-7.7-2.7c-0.1-0.6-0.2-1.9-0.3-2.5c-2.4-0.5-4.8-0.9-7.2-1.4c-2.3-1.2-3.8-3.6-5.4-5.6
			c-3-1.2-5.8-2.9-8-5.2c-4.2-1.7-7.3-5-11.3-7c-2.5-1-4-3.3-5.9-5.1c-1.9,0.3-3.8,0.8-5.8,0.9c0-0.9-0.1-2.6-0.1-3.4
			c-4.4-1.3-7.9-5-12.6-4.8c-3.7-0.7-7.8-1.1-10.6-3.8c-1.4-1.4-3.4-1.2-5.2-1.4l0.1-0.1c0.5-0.8,1.4-2.4,1.9-3.2
			c-1.9-0.7-3.9-1.3-5.8-2c0-0.6-0.1-1.9-0.1-2.5c-7-1.7-14.1-3.1-21.3-3.6c-1.5-0.2-3-0.5-4.5-0.8c-4.2-2.8-9.5-3.5-13.5-6.9
			c-5.7,1-11.3-2.1-16.1-5c-0.5-0.2-1.4-0.5-1.9-0.7c-2.5-2.3-5-5.2-8.6-5.2c-4.5-1.8-8.8-4.3-13.7-4.8c-2.2-2-4.7-3.5-7.6-4.1
			c-2.5-1.1-6.3-1.7-7-4.8l-0.2-0.8c-0.4,0-1.2,0-1.6,0c-1.4,0.6-2.3-0.9-3.3-1.6c-2.2-2.3-5.8-2.9-7.6-5.7
			c8.5-3.2,17.7-3.8,26.5-5.6c4.1-1.1,8.5,2.6,12.2-0.1c4,0.7,8,1.4,11.9,2.3c6.5,1.5,13.2,1.6,19.5,3.9c0.9,0.6,1.7,1.5,2.5,2.2
			c8.9,2.2,18.1,2.8,26.9,5.2c2.5,0.6,5,0.3,7.5,0.1c2.7,0.1,5.4,1.1,8,1.9c1.8,0.9,3.1,2.6,4.8,3.6c3,2.1,6.9,1.6,10,3.3
			c1.4,0.9,3.1,0.7,4.7,0.7c3.6,2.3,8.2,1.3,11.8,3.6c5.5,3.4,11.8,4.7,17.9,6.6c2.3,1,4.8,1.2,7.3,1.4c1.4,2,3.6,2.8,5.9,3.1
			c3.3,1.8,6.2,5,10.3,4.3c0.2,0.1,0.7,0.2,0.9,0.3c-0.5,0.5-1.4,1.6-1.9,2.2c3.9,0.2,7.9,0.3,11.7,1.6c2.7,0.7,5.3,2,8.2,1.9
			c1.2-1.6,1.8-3.5,2.5-5.3c-0.6-1.6-1.2-3.1-1.8-4.7c0.6-0.3,1.7-1,2.3-1.3c0.5-2.5,1-4.9,1.4-7.3c-0.6,0.2-1.7,0.8-2.3,1
			c2.5-5,4.9-10,7.4-14.9c-0.2-3.4-0.3-6.9,0.8-10.2c-1.7-3.2-4.8-5.9-5.4-9.7c-0.6-4-2-8-0.7-12c2.1-5.5,0.6-11.5,1.9-17.1
			c-1.4-8.7,1.8-17.3,1.5-26c-0.3-4.5,2.2-8.9,0.6-13.4c0.4-0.1,1.3-0.4,1.7-0.5c-0.9-1.3-1.5-1.1-1.7,0.5l0,0.8
			c-2.5-5.4,0.5-10.9,1.9-16.1c0.4,0.2,1.2,0.5,1.6,0.7c0.7-3.4,1.6-6.8,2.6-10.1c1.2-3.6,0.3-7.4,0.6-11.1c0.1-4,1.7-7.8,3.5-11.3
			c-0.2-0.6-0.6-1.9-0.9-2.6c0.1-1.1,0.5-2.2,1.1-3.2c0.3-0.4,0.9-1.3,1.2-1.8c1.7-3.5,4.4-6.5,6-10.1c0.7-1.9,2.1-3.4,3.6-4.8
			c0.6,0.5,1.8,1.5,2.4,2C379.3,131.3,379.8,129.9,380.4,128.4z M310.1,489.5"/>
	</g>
</g>
<g>
	<path class="st1" d="M362.9,153.1c0.4-0.9,0.9-1.7,1.5-2.5c0.2,0.6,0.6,1.9,0.9,2.6c-1.7,3.5-3.3,7.3-3.5,11.3
		c-0.4,3.7,0.5,7.5-0.6,11.1c-1,3.3-1.9,6.7-2.6,10.1c-0.4-0.2-1.2-0.5-1.6-0.7c-1.8-0.3-1-2.3-1.1-3.5c0.1-3.2-0.3-6.4,0-9.7
		c1.2-5.9,4.1-11.4,4.6-17.4C361.2,153.9,362,153.5,362.9,153.1z"/>
	<path class="st1" d="M355,200.1c0.2-1.6,0.8-1.8,1.7-0.5C356.3,199.7,355.4,200,355,200.1z"/>
	<path class="st1" d="M534.5,242.1c2.9-0.8,5.4-2.5,8.3-3.3c0.8,0.2,2.3,0.5,3.1,0.6c-1.7,0.2-3.4,0.4-5.1,0.6
		c-0.8,1.7-2.1,3-3.9,3.7c-0.1,0.5-0.2,1.5-0.2,2c-1.3,0.1-2.6,0.1-3.8,0.2c0,0.6-0.1,1.7-0.1,2.2c-0.6-0.1-1.6-0.2-2.2-0.2
		c-4.1,4.2-7,11.6-13.9,11.2c0.5,0.4,1.6,1.1,2.2,1.5c-1.8,0.5-3.5,1-5.3,1.5c-3,2.7-6.7,4.6-9.4,7.6c-1.5,0.2-3,0.4-4.5,0.6
		c0.1,0.5,0.2,1.5,0.3,2c-1.6,0.4-3.2,0.7-4.8,1c-0.5,0.8-1,1.7-1.4,2.5c-1.2,0.1-2.3,0.3-3.5,0.4c-0.6,0.9-1.3,1.7-1.9,2.5
		c-0.6,0.1-1.8,0.2-2.4,0.3c-0.5,0.8-0.9,1.5-1.4,2.3c-1.1,1-2.2,1.9-3.4,2.9c-1.5,0.9-3,1.9-4.1,3.3c-0.9,0.1-2.6,0.2-3.4,0.3
		c0.9-1.1,1.8-2.2,2.7-3.3c2.5-1.9,5.3-3.4,7-6.2c4-1.7,6.4-5.4,9.7-8.1c3.1-2.2,6.8-3.6,9.6-6.2c2.8-3.4,7.1-5,10.4-7.9
		c1.7-1.8,4.5-2.1,5.8-4.3c2.7-1,4.8-3.1,7.2-4.6c1.8,0,3.5,0,5.3,0C532.3,245.4,533.3,243.7,534.5,242.1z"/>
	<path class="st1" d="M604.7,252.7c3.1-2.9,4.6-6.8,5.8-10.8c1.5,0.2,2.9,0.5,4.4,0.7c-1.2,1.6-0.9,3.6-1,5.5
		c-4.5,2.6-6,7.9-9.4,11.4c-2.4,1.7-4.3,4-5.6,6.7c-0.9,1.1-1.7,2.3-2.4,3.6c-1.8,0.7-3.8,1.4-4.8,3.2c-1.5,2.3-5.1,2.2-5.9,5.1
		c-3.1,1.7-6.8,2.2-9.7,4.4c-2.8,2.2-6.4,2.7-9.4,4.5c0.1-1.3,0.2-2.6,0.2-4c0.6-0.1,1.8-0.3,2.4-0.5c0-2.3,0-4.6,0-6.9
		c-0.4-0.5-1.1-1.4-1.4-1.8c0-2-0.1-4.1-0.1-6.1c2.1,0.3,4.3,0.7,6.5,1.1c1.1-2.3,2.3-4.6,3.6-6.8c2.7,0.1,5.5,0.1,8.2,0.2
		c-0.5-0.4-1.4-1.3-1.9-1.8c1.5-0.3,3-0.5,4.4-0.8c0.1-0.7,0.2-1.9,0.2-2.6c4.2,0.2,8.4,0.3,12.7,0
		C602.6,255.6,603.7,254.1,604.7,252.7z"/>
	<path class="st1" d="M190.5,275.4c2.7-0.9,5.4-1.9,8-3.3c1.7,4.3,7.7,4.4,11.7,3.9c1.9,1.1,4.1,1.4,6.3,1.9c1.5,0.3,2.4,1.9,4,2.2
		c1.8-0.5,3.9-1.7,5.7-0.4c2.5,1.7,5.4,3.5,8.4,1.8c3.9,2.3,8.9,2.2,12.4,5.4c-2.5,0.1-5,0.5-7.5-0.1c-8.8-2.4-18-3-26.9-5.2
		c-0.8-0.8-1.6-1.6-2.5-2.2C203.8,277,197,276.9,190.5,275.4z"/>
	<path class="st1" d="M150.8,286.1c0.4,0,1.2,0,1.6,0l0.2,0.8c-0.4,0-1.2,0-1.6,0L150.8,286.1z"/>
	<path class="st1" d="M554.1,291.8c1.2,0,2.5-0.1,3.7-0.1c-0.3,0.8-0.9,2.3-1.2,3c-4.8,1.7-8.8,4.9-12.3,8.5
		c-3.5,0.9-7.2,2.5-9.9,4.9c-0.3,0.1-0.9,0.4-1.2,0.6c-1,0-3.1,0.1-4.1,0.2c1-2.2,3.1-3.2,5.2-4c0.2-0.4,0.6-1.2,0.8-1.6
		c1.5-0.3,2.9-0.7,4.4-1c0.2-0.5,0.6-1.5,0.8-1.9c1.5-0.2,3-0.4,4.5-0.6c0-0.6,0-1.2,0-1.8c1.5-0.8,2.9-1.7,4-3
		c1.8-0.4,3.6-0.7,5.5-1.1C554.3,293.4,554.2,292.3,554.1,291.8z"/>
	<path class="st1" d="M341.6,309.7c2.4-2.1,4-5.2,7.2-6.4c0.6-0.2,1.8-0.8,2.3-1c-0.5,2.4-1,4.9-1.4,7.3c-0.6,0.3-1.7,1-2.3,1.3
		c0.6,1.6,1.2,3.1,1.8,4.7c-0.7,1.8-1.3,3.7-2.5,5.3c-2.9,0.1-5.5-1.2-8.2-1.9c-3.8-1.2-7.8-1.3-11.7-1.6c0.5-0.5,1.4-1.6,1.9-2.2
		c-0.2-0.1-0.7-0.2-0.9-0.3l-1.3-0.6c2.5-1.6,5.3-0.1,7.9-0.7C336.6,312.3,339.1,311.1,341.6,309.7z"/>
	<path class="st1" d="M395.1,307.6c0-1.4,0.1-2.7,0.2-4c1.2,1.9,1.9,4.2,3.5,5.9l0,0c0.2,1.2,0.4,2.4,0.6,3.6
		c-0.4-0.3-1.3-0.8-1.8-1C396.7,310.6,395.9,309.1,395.1,307.6z"/>
	<path class="st1" d="M403.1,313.3l0.9-1.4c1.2,1.3,2.2,2.9,3.5,4.1c2.5,1.1,5.2,1.3,7.9,1.8c-1.4,0.5-2.7,1.1-4.1,1.6
		c-0.1,0.6-0.3,1.8-0.4,2.3c-0.9,0-2.8,0.1-3.7,0.1c-0.5-0.4-1.6-1.1-2.2-1.5c-0.1-0.4-0.3-1.2-0.4-1.6
		C403.3,317.2,402.9,315.3,403.1,313.3z"/>
	<path class="st1" d="M225.4,319.1c7.2,0.5,14.3,2,21.3,3.6c0,0.6,0.1,1.9,0.1,2.5c1.9,0.7,3.9,1.3,5.8,2c-0.5,0.8-1.4,2.4-1.9,3.2
		c-3.3-1.4-6.4-3.2-9.3-5.2c-2.4-1.2-5.1-1.3-7.6-1.9C231.5,321.1,227.5,322,225.4,319.1z"/>
	<path class="st1" d="M315.6,366c2.4,0.5,4.8,0.9,7.2,1.4c0.1,0.6,0.2,1.9,0.3,2.5c2.6,1,5.1,1.9,7.7,2.7c-0.5,0.3-1.4,0.9-1.9,1.1
		c2.7,0.5,5.2,1.4,7.7,2.5c0.4,1.5,0.8,2.9,1.3,4.4c-0.5,1.5-1,3-1.5,4.6c-1.3,0.4-2.5,0.7-3.8,1.1c-1.3,2-2.9,3.9-4.8,5.4
		c-0.6-2.4-1.2-4.7-1.7-7.1c0.9-1.3,1.7-2.7,2.4-4.1c-2.2-1.2-4.6-2.3-6.7-3.8c-0.2-2.1,0-4.4-1-6.2
		C318.7,369.4,316.8,368.1,315.6,366z"/>
	<path class="st1" d="M525.1,433.1c1.7,0,3.4,0.1,5.1,0.2c1.6,1.2,3.1,2.6,4.8,3.7c1.7,2.4,3.8,4.5,6.5,5.9c0.2,1.4,0.3,2.8,0.5,4.2
		c2.5,0,5.3,0.2,6.8,2.6c0.3,1.1,0.4,2.3,0.4,3.4c-2.8-1.6-7.8-1.2-8.5-5.1c-2.2-0.6-4.3-1.1-6.4-2c-0.8-1.9-1.2-4-1.6-6
		c-1.3-0.6-2.6-1.1-3.9-1.6c0.7-0.7,1.7-1.1,2.4-1.7C529,436,526.9,434.8,525.1,433.1z"/>
	<path class="st1" d="M548.6,454.8c0.9-0.8,1.7-1.7,2.6-2.6l0.4-0.4c1.4,0.7,2.4,1.6,3.3,2.9l0.8,1.6
		C553.2,455.8,550.9,455.4,548.6,454.8z"/>
	<path class="st1" d="M559.5,458.9c0.5,0.4,1.6,1.2,2.1,1.6C560.4,461.7,557.4,460.1,559.5,458.9z"/>
	<path class="st1" d="M566.2,461.8l0.4,0.3c-0.3,0.4-0.8,1.3-1.1,1.8c-1.4,0-2.7-0.6-3.9-1.2C563.1,462.2,564.6,461.9,566.2,461.8z"
		/>
	<path class="st1" d="M259,470.1c1.6-1.9,3.4-3.8,5.6-4.9c-0.4,2-1.3,3.8-2.6,5.4c-1.1,0.3-2.2,0.7-3.3,1.1
		c-0.4,0.4-1.1,1.3-1.5,1.7c-3.4,1.8-4.4,5.9-7.4,8c0,0.4-0.1,1.2-0.1,1.6c-2.9,4.3-7.3,7.7-9.3,12.6c-4.2,4.9-8.4,9.7-12.1,15
		c-0.8,1.1-1.6,2.2-2.5,3.3c-0.3-0.4-0.8-1.1-1.1-1.4c0.1-2.9,2.5-4.6,4.6-6.1c3.4-3.8,5.7-8.7,9.6-12.1c0.4-1.5,0.7-2.9,1-4.4
		c0.3-0.4,0.9-1.2,1.2-1.7c1.4-0.5,2.9-1,4.3-1.6c0.2-1.3,0.4-2.5,0.6-3.8c2.2-1.8,3.8-4.1,5.8-6.2c0.3-0.4,0.8-1.1,1.1-1.5
		c0.8-1.1,1.6-2.2,2.4-3.3C256.7,471.5,257.8,470.8,259,470.1z"/>
	<path class="st1" d="M580.4,471.4c5.1-0.9,9.2,3.4,14.1,4.4c2.7,2.8,6.5,4.1,9.6,6.4c0.6,0,1.7,0.1,2.2,0.1c2.1,2.2,6,2.5,6.8,5.8
		c0.2,1.3,1.7,1.4,2.7,2c3.4,4.8,6.3,10.6,11.8,13.3c1.3,3.5,5.1,4.8,7.2,7.7c2.2,2.8,6.2,4.1,7.5,7.6c-1.4,3.2-4.4,5.2-6.8,7.6
		c-0.5,0-1.5,0.1-2,0.2c-2.2,0.5-4.5,0.8-6.7,1.3c-0.3-0.3-0.9-1-1.2-1.3l-0.2-0.5c1.4-3.3,1.7-7,1.9-10.5c-0.3-0.4-1-1.1-1.4-1.5
		c-0.1-0.6-0.2-1.8-0.2-2.5c-1.1-0.4-2.2-0.8-3.3-1.2c-0.2-1-0.5-2-0.9-3c-2.2-0.9-4.5-1.2-6.8-1.8c0-0.5,0-1.6,0-2.1
		c-0.9-0.6-1.8-1.3-2.7-1.9c0-0.6,0-1.9,0-2.5c-2.1-0.5-4.2-1.1-6.3-1.6c0-0.6,0.1-1.8,0.2-2.3c-0.5-0.4-1.5-1.1-2.1-1.5
		c0-0.6-0.1-1.7-0.1-2.3c-2-0.7-4-1.4-6-2.1c0.6-0.3,1.7-0.8,2.2-1.1c-2.4-0.9-4.7-1.8-7.1-2.7c-0.1-1.1-0.2-2.2-0.2-3.2
		c-0.6-0.1-1.7-0.4-2.3-0.5c0.1-0.9,0.3-1.8,0.4-2.6c-1.4-0.4-2.8-0.8-4.1-1.2c0.3-1.1,0.4-2.6-1.2-2.4h-0.8
		c-2.6,0.3-4.5-1.7-6.4-3.1C578.9,472.2,579.9,471.7,580.4,471.4z"/>
	<path class="st1" d="M315.4,479.7c0.6,0.2,1.2,0.3,1.8,0.5c-0.4,2.2-0.2,5.3-2.6,6.5l-2.1,0.9C313.4,484.9,314.5,482.3,315.4,479.7
		z"/>
	<path class="st1" d="M310.1,489.5"/>
	<path class="st1" d="M302.4,496.6c2.6-2.2,4.6-6.4,8.7-5.6c0,0.8,0,2.5,0,3.3c-4.6,2.6-7.5,6.9-10.3,11.2c-4.2,0.4-3.1,6.6-7.6,6.8
		c-0.7,3-2.9,5-4.5,7.5c-4.8,4.8-5.9,12.1-11.1,16.6c-3.5,3.5-6,8-10,11c-5.7,4.3-11.6,8.3-16.3,13.8c-4.5,0.3-5.9,6.1-10.4,6.5
		c-1.4,1.5-2.9,3-5,3.5c1.6,2.8-1.7,3-3.5,3.9c-2.2,0.9-3.4,3-5.1,4.5l-1,0.1c-0.5,0-1.7,0.2-2.2,0.2c0.7-2.3,1.4-4.6,2.1-6.8
		c1.3-0.5,2.5-1.1,3.8-1.6c1.3-0.7,2.6-1.4,3.9-2.1c0-0.4,0.1-1.3,0.1-1.7c0.9-1.1,1.7-2.2,2.6-3.2c1.7-1.6,3.4-3.2,5-4.8
		c5.1-5.1,8.2-11.7,11.8-17.9c3.1-2.6,5.4-6.2,9.4-7.4c0.2-0.3,0.5-1.1,0.7-1.4c3.9-2.4,6.2-6.5,9.2-9.8c1.6-0.5,3.1-0.9,4.6-1.4
		c2.5-2.5,4.6-5.4,6.3-8.4c0.8-0.3,1.7-0.5,2.5-0.8c1-1.1,2.1-2.1,3.2-3.1c2-1.5,3.8-3.2,5.2-5.3c0.9-0.1,1.8-0.2,2.8-0.3
		C298.5,501.1,300.1,498.6,302.4,496.6z"/>
	<path class="st1" d="M209.1,538.9c0.5-1.6,0.6-3.5,2.3-4.3c0.8-0.5,2.3-1.4,3.1-1.9c-0.3,1.6-1.1,3-2.6,3.8c0,0.5,0,1.6,0,2.2
		C211.2,538.8,209.8,538.9,209.1,538.9z"/>
	<path class="st1" d="M195.4,582.9c0.2-0.4,0.6-1.1,0.8-1.5c2.2,1,4.4,2.2,6.7,3.3c0,0.6,0.1,1.8,0.1,2.3c1.8,0,3.5,0,5.3,0
		c1.1-2.8,4.2-1.5,6.4-1.5c-0.6,0.7-1.8,2.1-2.4,2.8c-0.3,0.3-0.8,0.9-1.1,1.2c-0.5,0.1-1.6,0.4-2.1,0.5c-1.4,1.3-3.2,0.9-4.9,0.7
		c-1.2,0.9-2.5,1.8-3.7,2.7c-0.8,0-2.4,0.1-3.2,0.2c-2-2.3-2.9-5.6-0.8-8.1C196.3,585,195.7,583.6,195.4,582.9z"/>
</g>
</svg>
